<?xml version="1.0" standalone="no"?><!DOCTYPE svg PUBLIC "-//W3C//DTD SVG 1.1//EN" "http://www.w3.org/Graphics/SVG/1.1/DTD/svg11.dtd"><svg t="1777840598002" class="icon" viewBox="0 0 1024 1024" version="1.1" xmlns="http://www.w3.org/2000/svg" p-id="9480" xmlns:xlink="http://www.w3.org/1999/xlink" width="200" height="200"><path d="M932.31 567.765l-47.233-145.28-93.568-288a16.085 16.085 0 0 0-30.592 0l-93.568 288H356.608l-93.568-288a16.085 16.085 0 0 0-30.592 0l-93.568 288-47.232 145.28a32.17 32.17 0 0 0 11.69 35.968L512 900.608l408.661-296.875a32.17 32.17 0 0 0 11.691-35.968" fill="#FC6D26" p-id="9481"></path><path d="M512 900.65L667.392 422.4H356.651L512 900.693z" fill="#E24329" p-id="9482"></path><path d="M512 900.608L356.693 422.485h-217.77L512 900.608z" fill="#FC6D26" p-id="9483"></path><path d="M138.88 422.485l-47.147 145.28a32.17 32.17 0 0 0 11.691 35.968L512 900.693 138.88 422.485z" fill="#FCA326" p-id="9484"></path><path d="M138.88 422.443h217.728l-93.568-288a16.085 16.085 0 0 0-30.592 0l-93.568 288z" fill="#E24329" p-id="9485"></path><path d="M512 900.608l155.35-478.123h217.77L512 900.651z" fill="#FC6D26" p-id="9486"></path><path d="M885.12 422.485l47.232 145.28a32.17 32.17 0 0 1-11.69 35.968L512 900.693l373.12-478.165z" fill="#FCA326" p-id="9487"></path><path d="M885.077 422.443H667.35l93.568-288a16.085 16.085 0 0 1 30.592 0l93.568 288z" fill="#E24329" p-id="9488"></path></svg>