<?xml version="1.0" standalone="no"?><!DOCTYPE svg PUBLIC "-//W3C//DTD SVG 1.1//EN" "http://www.w3.org/Graphics/SVG/1.1/DTD/svg11.dtd"><svg t="1777840481637" class="icon" viewBox="0 0 1024 1024" version="1.1" xmlns="http://www.w3.org/2000/svg" p-id="5096" xmlns:xlink="http://www.w3.org/1999/xlink" width="200" height="200"><path d="M789.369447 969.466069c-0.721999-3.621993-44.703911-224.579553-45.18791-226.849548-5.281989-25.575949-19.593961-45.16791-40.599919-57.789885-12.591975-7.595985-19.741961-8.805982-27.907944-11.315978l-149.979701-52.417895a21.903956 21.903956 0 0 1-14.797971-20.717959v-45.925909c-57.445886 28.723943-117.685766 26.909946-171.155659 0.815999v45.10991a21.899956 21.899956 0 0 1-14.79797 20.717959l-61.653878 21.139958h-0.057999l0.006 0.012-0.006 0.01-88.205825 31.255937-11.603977 3.423993c-20.983958 7.825984-39.179922 22.687955-49.375901 43.469914-7.057986 14.315971-4.96399 9.287981-39.213922 181.217639-12.681975 65.671869-15.481969 70.45586-13.895972 85.12783 4.413991 41.011918 46.597907 36.731927 47.739904 37.229926h633.338739c0.451999-0.152 55.629889 4.047992 47.355905-54.513891z" fill="#6C7D87" p-id="5097"></path><path d="M112.840795 969.466069l45.18591-247.457507c-0.625999 3.005994 3.353993-33.099934 37.321926-55.701889-37.935924 13.441973-26.177948 8.063984-37.839925 13.061974-22.013956 9.94198-39.085922 26.833947-47.503905 50.637899-3.367993 9.559981-1.183998 1.155998-35.17193 171.613658-12.681975 65.671869-15.479969 70.46186-13.895972 85.12783 4.413991 41.011918 46.597907 36.731927 47.739904 37.229926h51.515898c-36.347928 0.002-52.053896-21.253958-47.351906-54.511891z" fill="#566A75" p-id="5098"></path><path d="M201.910618 1023.97996H108.674803c-1.193998-0.521999-49.275902 4.307991-48.073904-45.815909 0.261999-10.687979 1.599997-11.137978 14.229972-76.543847l0.729998-3.665993h126.349749v126.025749z" fill="#DD9A5E" p-id="5099"></path><path d="M125.898769 897.956211H75.562869l-0.729998 3.663993c-12.675975 65.633869-13.967972 65.839869-14.229972 76.543847-1.197998 49.9579 47.125906 45.40191 48.073904 45.815909h51.515898c-33.477933 0-48.749903-17.611965-48.073904-45.815909 0.08-3.273993 1.299997-10.11998 13.779972-80.20784z" fill="#D18C54" p-id="5100"></path><path d="M339.740343 547.34091c0 128.111745 0-14.593971 0.002 86.309828h0.054v3.083994c0 20.497959 13.091974 38.717923 32.527935 45.225909 31.191938 10.443979 71.239858 11.633977 105.985789 0 19.437961-6.507987 32.527935-24.725951 32.527935-45.225909v-3.083994h0.054l0.002-86.309828c-55.44989 29.565941-117.975765 28.355944-171.153659 0z" fill="#DD9A5E" p-id="5101"></path><path d="M391.32424 650.778704h-0.065999l-0.004-79.009843a187.755626 187.755626 0 0 1-51.515898-18.427963c0 128.111745 0-20.593959 0.002 80.30984h0.054v3.083994c0 20.497959 13.091974 38.717923 32.527935 45.225909a158.697684 158.697684 0 0 0 30.29994 6.887987c-13.099974-17.787965-11.097978-36.707927-11.297978-38.069924z" fill="#D18C54" p-id="5102"></path><path d="M201.910618 847.402312a15.453969 15.453969 0 0 0-15.455969 15.455969v161.121679h30.909938V862.858281a15.451969 15.451969 0 0 0-15.453969-15.455969z" fill="#566A75" p-id="5103"></path><path d="M925.665176 1023.97996H425.316173c-20.875958 0-37.799925-16.923966-37.799925-37.799925 0-11.963976 9.699981-21.663957 21.663957-21.663956h532.620939c11.963976 0 21.663957 9.699981 21.663957 21.663956 0 20.875958-16.923966 37.799925-37.799925 37.799925z" fill="#C6C6C6" p-id="5104"></path><path d="M484.880054 986.180035c0-11.963976 9.699981-21.663957 21.663957-21.663956H409.180205c-11.963976 0-21.663957 9.699981-21.663957 21.663956v0.002c0 20.875958 16.923966 37.799925 37.799925 37.799925h97.361806c-20.875958-0.002-37.797925-16.925966-37.797925-37.801925z" fill="#B7B7B7" p-id="5105"></path><path d="M892.891241 633.650738H458.090107c-13.599973 0-24.727951 11.127978-24.72795 24.72795v281.40944c0 13.599973 11.127978 24.727951 24.72795 24.727951h434.801134c13.599973 0 24.727951-11.127978 24.727951-24.727951V658.378688c0-13.599973-11.127978-24.727951-24.727951-24.72795z" fill="#EDEDED" p-id="5106"></path><path d="M484.880054 939.788128V658.378688c0-13.599973 11.127978-24.727951 24.727951-24.72795h-51.515898c-13.599973 0-24.727951 11.127978-24.72795 24.72795v281.40944c0 13.599973 11.127978 24.727951 24.72795 24.727951h51.515898c-13.599973 0-24.727951-11.127978-24.727951-24.727951z" fill="#DADADA" p-id="5107"></path><path d="M675.499674 799.078408m-35.717929 0a35.717929 35.717929 0 1 0 71.435858 0 35.717929 35.717929 0 1 0-71.435858 0Z" fill="#DADADA" p-id="5108"></path><path d="M675.507674 763.394479c-27.233946-0.044-44.777911 29.597941-30.949938 53.547893 13.833972 23.959952 48.271904 23.567953 61.849877-0.027999-27.473945-0.038-44.627911-29.665941-30.899939-53.519894z" fill="#C6C6C6" p-id="5109"></path><path d="M420.658182 0.244C287.540447 0.751999 175.154671 109.423782 175.154671 247.487507v93.699813h494.557015v-140.17772c0-95.745809-58.905883-117.801765-58.905883-117.801766C537.549949-7.117986 420.756182 0.242 420.756182 0.242" fill="#4C4846" p-id="5110"></path><path d="M454.064115 1.719997c-150.867699-17.173966-273.639455 96.695807-278.699444 236.023529-0.389999 10.01798-0.128 6.269988-0.21 103.443794h58.905883v-93.699813C234.060554 119.583762 330.880361 15.23997 454.064115 1.719997z" fill="#3D3938" p-id="5111"></path><path d="M236.06055 311.763379c-31.015938-11.051978-64.685871 9.501981-64.685871 39.489921 0 29.97994 33.665933 50.543899 64.685871 39.489922v-78.979843zM608.805807 311.763379c31.015938-11.051978 64.685871 9.501981 64.685871 39.489921 0 29.97994-33.665933 50.543899-64.685871 39.489922v-78.979843z" fill="#DD9A5E" p-id="5112"></path><path d="M175.90467 333.095336c-18.117964 34.393931 20.02796 71.947857 60.15588 57.649886v-36.317928c-23.401953 8.335983-49.567901-1.227998-60.15588-21.331958zM608.805807 354.427294v36.317928c40.12592 14.297972 78.271844-23.253954 60.15588-57.649886-7.575985 14.387971-36.745927 29.671941-60.15588 21.331958z" fill="#D18C54" p-id="5113"></path><path d="M602.30582 233.513535c4.80399 0.463999 8.499983 4.449991 8.499983 9.275981 0 158.597684 0.104 146.623708-0.265999 153.997694-2.443995 48.237904-23.073954 92.529816-56.627887 125.26775-117.581766 114.643772-313.789375 33.339934-319.691364-127.471746-0.275999-7.089986-0.16-89.233822-0.159999-89.001823 0-36.933926 32.777935-65.11387 69.333862-59.835881 57.573885 8.309983 141.611718 5.08199 214.939571-57.597885 7.533985-6.439987 18.969962-4.359991 23.781953 4.305992 9.085982 16.361967 27.151946 37.871925 60.18988 41.059918z" fill="#EDAE6B" p-id="5114"></path><path d="M285.762451 394.583214c-0.236-6.079988-0.186-117.353766-0.166-148.787704-28.753943 4.313991-51.533897 28.999942-51.533897 59.785881 0-0.232-0.116 81.911837 0.159999 89.001823 4.349991 118.567764 112.155777 193.893614 215.623571 179.345643-84.955831-11.745977-160.45768-80.52184-164.083673-179.345643z" fill="#DD9A5E" p-id="5115"></path></svg>